# xmcd CD database file
#
# Track frame offsets:
#	150
#	21325
#	39680
#	59025
#	77380
#	94160
#	111995
#	129650
#	148390
#	163635
#	182860
#	199430
#
# Disc length: 2797 seconds
#
# Revision: 2
# Processed by: cddbd v1.5.2PL0 Copyright (c) Steve Scherf et al.
# Submitted via: CDex 1.70beta2
#
DISCID=b70aeb0c
DTITLE=Pod Budą - Jak kapitalizm to kapitalizm
DYEAR=1993
DGENRE=Rock
TTITLE0=Doliczyć do trzech (Jan Hnatowicz/Andrzej Sikorowski)
TTITLE1=Romans z Harlequina (Jan Hnatowicz/Andrzej Sikorowski)
TTITLE2=Nie przenoście nam stolicy do Krakowa (Andrzej Sikorowski/Andrzej Sikorowski)
TTITLE3=Są takie sprawy (Jan Hnatowicz/Andrzej Sikorowski)
TTITLE4=Wyznanie barmana (Andrzej Sikorowski/Andrzej Sikorowski)
TTITLE5=Widziane z księżyca (Jan Hnatowicz/Andrzej Sikorowski)
TTITLE6=Turkusowa polana (Andrzej Sikorowski/Andrzej Sikorowski)
TTITLE7=Moje kobiety (Andrzej Sikorowski/Andrzej Sikorowski)
TTITLE8=Na całość (Andrzej Sikorowski/Andrzej Sikorowski)
TTITLE9=Wywiad na pierwszą stronę (Andrzej Sikorowski/Andrzej Sikorowski)
TTITLE10=Jak kapitalizm, to kapitalizm (Andrzej Sikorowski/Andrzej Sikorowski)
TTITLE11=Dobra rada (Grzegorz Turnau/Andrzej Sikorowski)
EXTD=by **ULm@N** YEAR: 1993
EXTT0=
EXTT1=
EXTT2=
EXTT3=
EXTT4=
EXTT5=
EXTT6=
EXTT7=
EXTT8=
EXTT9=
EXTT10=
EXTT11=
PLAYORDER=
